<?xml version="1.0" standalone="no"?>
<!DOCTYPE svg PUBLIC "-//W3C//DTD SVG 20010904//EN"
 "http://www.w3.org/TR/2001/REC-SVG-20010904/DTD/svg10.dtd">
<svg version="1.0" xmlns="http://www.w3.org/2000/svg"
 width="700.000000pt" height="700.000000pt" viewBox="0 0 700.000000 700.000000"
 preserveAspectRatio="xMidYMid meet">
<metadata>
Created by potrace 1.11, written by Peter Selinger 2001-2013
</metadata>
<g transform="translate(0.000000,700.000000) scale(0.100000,-0.100000)"
fill="#000000" stroke="none">
<path d="M2610 6986 c-176 -33 -240 -81 -240 -183 0 -73 35 -118 125 -158 75
-34 201 -116 138 -90 -49 20 -159 37 -258 40 -300 8 -576 -100 -761 -299 -84
-89 -105 -132 -92 -189 21 -96 97 -130 228 -102 14 3 68 6 120 6 160 0 340
-57 488 -153 34 -22 61 -42 60 -43 -2 -1 -37 -6 -78 -9 -155 -15 -299 -84
-416 -200 -81 -81 -134 -166 -164 -262 -31 -103 -10 -173 65 -208 57 -27 106
-15 200 48 108 74 315 93 467 43 97 -31 171 -73 161 -91 -5 -7 -47 -64 -94
-127 -531 -706 -971 -1634 -1220 -2569 -43 -161 -107 -434 -123 -525 -3 -16
-8 -40 -10 -53 -8 -39 -48 -275 -52 -307 -2 -16 -6 -41 -8 -55 -6 -28 -13 -81
-21 -155 -3 -27 -7 -65 -9 -83 -3 -18 -8 -67 -11 -110 -4 -42 -8 -88 -10 -101
-2 -13 -7 -71 -10 -130 -10 -177 -15 -234 -20 -240 -3 -3 -70 -6 -148 -7 -154
-1 -195 -10 -268 -55 -143 -90 -195 -281 -118 -434 30 -59 96 -123 159 -153
l55 -27 2735 -3 2736 -2 61 21 c67 22 140 79 177 138 100 158 48 370 -114 467
-62 38 -109 47 -264 49 -83 2 -153 3 -157 4 -3 1 -5 350 -5 776 l0 775 118 0
c128 0 167 10 205 51 30 34 35 80 12 127 -11 22 -95 113 -192 208 l-172 169
-1 440 c-1 395 -3 444 -19 483 -20 49 -79 104 -127 118 -18 6 -128 10 -243 9
-209 -1 -210 -1 -260 -28 -80 -44 -124 -127 -119 -225 2 -40 36 -71 -315 280
l-279 279 29 70 c44 109 63 216 63 364 -1 173 -30 305 -100 448 -18 37 -30 67
-26 67 9 0 63 -57 117 -123 72 -90 158 -107 241 -47 47 34 58 67 60 180 2 59
-2 127 -8 151 -5 24 -11 53 -14 64 -18 93 -84 239 -155 345 -55 83 -186 215
-267 269 -87 58 -192 107 -287 132 -88 24 -301 35 -368 20 -44 -10 -47 -7 -53
57 -45 475 -464 845 -969 857 -60 1 -139 -3 -175 -9z m589 -2301 c106 -155
136 -359 76 -529 -19 -54 -25 -90 -22 -113 11 -68 54 -109 125 -119 100 -14
289 143 375 312 22 43 54 137 64 184 10 50 9 174 -2 225 -7 33 -11 61 -10 63
10 11 147 -137 196 -211 86 -131 128 -247 144 -404 4 -32 8 -61 11 -64 2 -3
-355 -361 -793 -795 -479 -475 -801 -802 -809 -821 -8 -18 -14 -42 -14 -54 0
-39 32 -90 69 -108 44 -23 29 -21 159 -21 l107 0 1 -778 0 -777 -340 0 -340 0
0 255 c1 243 10 552 19 670 2 30 7 93 10 140 11 147 23 285 30 330 2 14 6 52
10 85 6 60 42 332 49 370 2 11 7 40 11 65 9 52 8 49 30 165 9 50 19 101 21
115 3 14 7 32 9 40 2 8 7 31 10 50 28 167 213 805 265 915 5 11 20 49 33 85
86 232 251 559 378 746 l51 75 24 -28 c14 -15 38 -46 53 -68z m1642 -3557 c0
-251 0 -416 0 -438 -1 -13 -56 -15 -438 -15 l-438 0 0 338 -1 337 438 0 438 0
1 -222z"/>
</g>
</svg>
