<?xml version="1.0" encoding="iso-8859-1"?>
<!-- Generator: Adobe Illustrator 19.0.0, SVG Export Plug-In . SVG Version: 6.00 Build 0)  -->
<svg xmlns="http://www.w3.org/2000/svg" xmlns:xlink="http://www.w3.org/1999/xlink" version="1.1" id="Capa_1" x="0px" y="0px" viewBox="0 0 228.112 228.112" style="enable-background:new 0 0 228.112 228.112;" xml:space="preserve" width="65px" height="65px">
<path d="M201.056,206.112h-8.013c0.003-0.07-0.32-0.136-0.32-0.207v-50.462l6.788-0.014c3.029-0.098,4.142-1.896,4.444-2.664  c0.305-0.777,0.652-2.821-1.556-5.01l-10.676-10.447v-27.197c0-3.866-2.801-7-6.667-7h-11c-3.866,0-7.333,3.134-7.333,7v2.442  l-18.876-18.855c-0.179-0.177-0.285-0.339-0.48-0.492c1.366-2.843,2.325-5.939,2.785-9.361c1.084-8.062-0.619-15.991-4.599-22.335  c1.868,1.525,3.535,3.289,4.959,5.279c0.968,1.379,2.497,2.17,4.188,2.17c2.701,0,4.929-1.996,5.176-4.626  c0.464-4.661-0.204-9.17-2.043-13.776c-4.71-11.876-14.954-19.862-26.737-20.843c-2.878-0.244-5.769-0.094-8.566,0.439  c-0.107-2.854-0.605-5.674-1.491-8.427C117.396,10.464,107.296,2.28,94.687,0.369c-4.972-0.761-9.76-0.342-14.191,1.231  c-2,0.695-3.326,2.527-3.378,4.668c-0.052,2.126,1.176,4.008,3.129,4.795c2.349,0.944,4.517,2.183,6.486,3.694  c-3.271-1.127-6.782-1.705-10.446-1.705c-4.193,0-8.337,0.765-12.31,2.272c-5.793,2.189-10.27,5.531-13.673,10.201  c-1.044,1.411-1.204,3.256-0.418,4.813c0.785,1.558,2.351,2.525,4.084,2.525c0.333,0,0.669-0.036,0.971-0.102  c1.905-0.394,3.837-0.593,5.741-0.593c6.502,0,12.74,2.254,18.549,6.697c-7.163-0.528-14.338,2.973-18.845,9.093  c-1.762,2.366-2.947,4.956-3.522,7.689c-0.292,1.373,0.046,2.785,0.929,3.876c0.886,1.094,2.244,1.747,3.634,1.747  c1.013,0,1.978-0.332,2.798-0.965c3.748-2.913,8.466-4.038,13.779-3.291c3.41,0.481,6.349,1.616,8.771,3.383  c-4.405,5.367-14.372,18.761-24.282,38.435c-11.685,23.193-25.833,60.481-27.614,107.277h-7.822c-6.065,0-11,4.935-11,11  s4.935,11,11,11h174c6.065,0,11-4.935,11-11S207.121,206.112,201.056,206.112z M71.578,206.112  c-1.691-83.338,22.83-123.723,30.092-133.808c2.018,1.902,3.606,4.345,4.74,7.293c1.939,5.021,1.906,9.931-0.102,14.209  c-0.66,1.423-0.55,3.063,0.295,4.386c0.854,1.338,2.358,2.169,3.926,2.169c0.678,0,1.337-0.147,1.938-0.43  c2.527-1.164,4.797-2.917,6.74-5.208c5.028-5.901,6.735-13.588,4.612-20.394c7.188,5.935,11.128,13.476,11.404,21.88  c0.014,0.336,0.065,0.662,0.143,0.977l-50.997,50.571c-2.14,2.123-1.661,4.157-1.355,4.934c0.311,0.79,1.203,2.638,4.416,2.74  l6.293,0.012v50.462c0,0.071,0.343,0.137,0.346,0.207H71.578z M157.784,206.112h-28.67l0.056-22h28.558L157.784,206.112z" fill="#FFD700"/>
<g>
</g>
<g>
</g>
<g>
</g>
<g>
</g>
<g>
</g>
<g>
</g>
<g>
</g>
<g>
</g>
<g>
</g>
<g>
</g>
<g>
</g>
<g>
</g>
<g>
</g>
<g>
</g>
<g>
</g>
</svg>
